# Wavefront OBJ file automatically generated by Tiled2Unity

# Vertices (Count = 242)
v -3968 -128 0
v -4096 -128 0
v -4096 0 0
v -3968 0 0
v -4224 -128 0
v -4224 0 0
v -4352 -128 0
v -4352 0 0
v -4480 -128 0
v -4480 0 0
v -4608 -128 0
v -4608 0 0
v -5760 -128 0
v -5888 -128 0
v -5888 0 0
v -5760 0 0
v -6016 -128 0
v -6016 0 0
v -6144 -128 0
v -6144 0 0
v -6272 -128 0
v -6272 0 0
v -7552 -128 0
v -7680 -128 0
v -7680 0 0
v -7552 0 0
v -7808 -128 0
v -7808 0 0
v -7936 -128 0
v -7936 0 0
v -9344 -128 0
v -9472 -128 0
v -9472 0 0
v -9344 0 0
v -9600 -128 0
v -9600 0 0
v -11136 -128 0
v -11264 -128 0
v -11264 0 0
v -11136 0 0
v -11392 -128 0
v -11392 0 0
v -11520 -128 0
v -11520 0 0
v -11648 -128 0
v -11648 0 0
v -11776 -128 0
v -11776 0 0
v -11904 -128 0
v -11904 0 0
v -12032 -128 0
v -12032 0 0
v -12160 -128 0
v -12160 0 0
v -12288 -128 0
v -12288 0 0
v -12416 -128 0
v -12416 0 0
v -12544 -128 0
v -12544 0 0
v -12672 -128 0
v -12672 0 0
v -12800 -128 0
v -12800 0 0
v -3456 -512 0
v -3584 -512 0
v -3584 -384 0
v -3456 -384 0
v -2816 -640 0
v -2944 -640 0
v -2944 -512 0
v -2816 -512 0
v -3456 -640 0
v -3584 -640 0
v -2176 -768 0
v -2304 -768 0
v -2304 -640 0
v -2176 -640 0
v -2816 -768 0
v -2944 -768 0
v -3456 -768 0
v -3584 -768 0
v -1664 -896 0
v -1792 -896 0
v -1792 -768 0
v -1664 -768 0
v -2176 -896 0
v -2304 -896 0
v -1024 -1024 0
v -1152 -1024 0
v -1152 -896 0
v -1024 -896 0
v -1664 -1024 0
v -1792 -1024 0
v -512 -1152 0
v -640 -1152 0
v -640 -1024 0
v -512 -1024 0
v -1024 -1152 0
v -1152 -1152 0
v -1664 -1152 0
v -1792 -1152 0
v 0 -1280 0
v -128 -1280 0
v -128 -1152 0
v 0 -1152 0
v -256 -1280 0
v -256 -1152 0
v -384 -1280 0
v -384 -1152 0
v -512 -1280 0
v -640 -1280 0
v -768 -1280 0
v -768 -1152 0
v -896 -1280 0
v -896 -1152 0
v -1024 -1280 0
v -1152 -1280 0
v -1280 -1280 0
v -1280 -1152 0
v -1408 -1280 0
v -1408 -1152 0
v -1536 -1280 0
v -1536 -1152 0
v -1664 -1280 0
v -1792 -1280 0
v -1920 -1280 0
v -1920 -1152 0
v -2048 -1280 0
v -2048 -1152 0
v -2176 -1280 0
v -2176 -1152 0
v -2304 -1280 0
v -2304 -1152 0
v -2432 -1280 0
v -2432 -1152 0
v -2560 -1280 0
v -2560 -1152 0
v -2688 -1280 0
v -2688 -1152 0
v -2816 -1280 0
v -2816 -1152 0
v -2944 -1280 0
v -2944 -1152 0
v -3072 -1280 0
v -3072 -1152 0
v -3200 -1280 0
v -3200 -1152 0
v -3328 -1280 0
v -3328 -1152 0
v -3456 -1280 0
v -3456 -1152 0
v -3584 -1280 0
v -3584 -1152 0
v -3712 -1280 0
v -3712 -1152 0
v -3840 -1280 0
v -3840 -1152 0
v -3968 -1280 0
v -3968 -1152 0
v -4096 -1280 0
v -4096 -1152 0
v -4224 -1280 0
v -4352 -1280 0
v -4352 -1152 0
v -4224 -1152 0
v -4480 -1280 0
v -4480 -1152 0
v -4736 -1280 0
v -4864 -1280 0
v -4864 -1152 0
v -4736 -1152 0
v -4992 -1280 0
v -4992 -1152 0
v -5120 -1280 0
v -5120 -1152 0
v -5504 -1280 0
v -5632 -1280 0
v -5632 -1152 0
v -5504 -1152 0
v -5760 -1280 0
v -5760 -1152 0
v -5888 -1280 0
v -5888 -1152 0
v -6016 -1280 0
v -6016 -1152 0
v -6528 -1280 0
v -6656 -1280 0
v -6656 -1152 0
v -6528 -1152 0
v -6784 -1280 0
v -6784 -1152 0
v -6912 -1280 0
v -6912 -1152 0
v -7040 -1280 0
v -7040 -1152 0
v -7168 -1280 0
v -7168 -1152 0
v -7808 -1280 0
v -7936 -1280 0
v -7936 -1152 0
v -7808 -1152 0
v -8064 -1280 0
v -8064 -1152 0
v -8192 -1280 0
v -8192 -1152 0
v -8320 -1280 0
v -8320 -1152 0
v -9088 -1280 0
v -9216 -1280 0
v -9216 -1152 0
v -9088 -1152 0
v -9344 -1280 0
v -9344 -1152 0
v -9472 -1280 0
v -9472 -1152 0
v -9600 -1280 0
v -9600 -1152 0
v -10496 -1280 0
v -10624 -1280 0
v -10624 -1152 0
v -10496 -1152 0
v -10752 -1280 0
v -10752 -1152 0
v -10880 -1280 0
v -10880 -1152 0
v -11008 -1280 0
v -11008 -1152 0
v -11136 -1280 0
v -11136 -1152 0
v -12160 -1280 0
v -12288 -1280 0
v -12288 -1152 0
v -12160 -1152 0
v -12416 -1280 0
v -12416 -1152 0
v -12544 -1280 0
v -12544 -1152 0
v -12672 -1280 0
v -12672 -1152 0
v -12800 -1280 0
v -12800 -1152 0

# Texture Coorindates (Count = 4)
vt 0.0001220703 0.0001220703
vt 0.9998779 0.0001220703
vt 0.9998779 0.9998779
vt 0.0001220703 0.9998779

# Normal
vn 0 0 -1

# Groups (Count = 1)
g mesh_[00]_[00]
f  1/1/1  2/2/1  3/3/1  4/4/1 
f  2/1/1  5/2/1  6/3/1  3/4/1 
f  5/1/1  7/2/1  8/3/1  6/4/1 
f  7/1/1  9/2/1  10/3/1  8/4/1 
f  9/1/1  11/2/1  12/3/1  10/4/1 
f  13/1/1  14/2/1  15/3/1  16/4/1 
f  14/1/1  17/2/1  18/3/1  15/4/1 
f  17/1/1  19/2/1  20/3/1  18/4/1 
f  19/1/1  21/2/1  22/3/1  20/4/1 
f  23/1/1  24/2/1  25/3/1  26/4/1 
f  24/1/1  27/2/1  28/3/1  25/4/1 
f  27/1/1  29/2/1  30/3/1  28/4/1 
f  31/1/1  32/2/1  33/3/1  34/4/1 
f  32/1/1  35/2/1  36/3/1  33/4/1 
f  37/1/1  38/2/1  39/3/1  40/4/1 
f  38/1/1  41/2/1  42/3/1  39/4/1 
f  41/1/1  43/2/1  44/3/1  42/4/1 
f  43/1/1  45/2/1  46/3/1  44/4/1 
f  45/1/1  47/2/1  48/3/1  46/4/1 
f  47/1/1  49/2/1  50/3/1  48/4/1 
f  49/1/1  51/2/1  52/3/1  50/4/1 
f  51/1/1  53/2/1  54/3/1  52/4/1 
f  53/1/1  55/2/1  56/3/1  54/4/1 
f  55/1/1  57/2/1  58/3/1  56/4/1 
f  57/1/1  59/2/1  60/3/1  58/4/1 
f  59/1/1  61/2/1  62/3/1  60/4/1 
f  61/1/1  63/2/1  64/3/1  62/4/1 
f  65/1/1  66/2/1  67/3/1  68/4/1 
f  69/1/1  70/2/1  71/3/1  72/4/1 
f  73/1/1  74/2/1  66/3/1  65/4/1 
f  75/1/1  76/2/1  77/3/1  78/4/1 
f  79/1/1  80/2/1  70/3/1  69/4/1 
f  81/1/1  82/2/1  74/3/1  73/4/1 
f  83/1/1  84/2/1  85/3/1  86/4/1 
f  87/1/1  88/2/1  76/3/1  75/4/1 
f  89/1/1  90/2/1  91/3/1  92/4/1 
f  93/1/1  94/2/1  84/3/1  83/4/1 
f  95/1/1  96/2/1  97/3/1  98/4/1 
f  99/1/1  100/2/1  90/3/1  89/4/1 
f  101/1/1  102/2/1  94/3/1  93/4/1 
f  103/1/1  104/2/1  105/3/1  106/4/1 
f  104/1/1  107/2/1  108/3/1  105/4/1 
f  107/1/1  109/2/1  110/3/1  108/4/1 
f  109/1/1  111/2/1  95/3/1  110/4/1 
f  111/1/1  112/2/1  96/3/1  95/4/1 
f  112/1/1  113/2/1  114/3/1  96/4/1 
f  113/1/1  115/2/1  116/3/1  114/4/1 
f  115/1/1  117/2/1  99/3/1  116/4/1 
f  117/1/1  118/2/1  100/3/1  99/4/1 
f  118/1/1  119/2/1  120/3/1  100/4/1 
f  119/1/1  121/2/1  122/3/1  120/4/1 
f  121/1/1  123/2/1  124/3/1  122/4/1 
f  123/1/1  125/2/1  101/3/1  124/4/1 
f  125/1/1  126/2/1  102/3/1  101/4/1 
f  126/1/1  127/2/1  128/3/1  102/4/1 
f  127/1/1  129/2/1  130/3/1  128/4/1 
f  129/1/1  131/2/1  132/3/1  130/4/1 
f  131/1/1  133/2/1  134/3/1  132/4/1 
f  133/1/1  135/2/1  136/3/1  134/4/1 
f  135/1/1  137/2/1  138/3/1  136/4/1 
f  137/1/1  139/2/1  140/3/1  138/4/1 
f  139/1/1  141/2/1  142/3/1  140/4/1 
f  141/1/1  143/2/1  144/3/1  142/4/1 
f  143/1/1  145/2/1  146/3/1  144/4/1 
f  145/1/1  147/2/1  148/3/1  146/4/1 
f  147/1/1  149/2/1  150/3/1  148/4/1 
f  149/1/1  151/2/1  152/3/1  150/4/1 
f  151/1/1  153/2/1  154/3/1  152/4/1 
f  153/1/1  155/2/1  156/3/1  154/4/1 
f  155/1/1  157/2/1  158/3/1  156/4/1 
f  157/1/1  159/2/1  160/3/1  158/4/1 
f  159/1/1  161/2/1  162/3/1  160/4/1 
f  163/1/1  164/2/1  165/3/1  166/4/1 
f  164/1/1  167/2/1  168/3/1  165/4/1 
f  169/1/1  170/2/1  171/3/1  172/4/1 
f  170/1/1  173/2/1  174/3/1  171/4/1 
f  173/1/1  175/2/1  176/3/1  174/4/1 
f  177/1/1  178/2/1  179/3/1  180/4/1 
f  178/1/1  181/2/1  182/3/1  179/4/1 
f  181/1/1  183/2/1  184/3/1  182/4/1 
f  183/1/1  185/2/1  186/3/1  184/4/1 
f  187/1/1  188/2/1  189/3/1  190/4/1 
f  188/1/1  191/2/1  192/3/1  189/4/1 
f  191/1/1  193/2/1  194/3/1  192/4/1 
f  193/1/1  195/2/1  196/3/1  194/4/1 
f  195/1/1  197/2/1  198/3/1  196/4/1 
f  199/1/1  200/2/1  201/3/1  202/4/1 
f  200/1/1  203/2/1  204/3/1  201/4/1 
f  203/1/1  205/2/1  206/3/1  204/4/1 
f  205/1/1  207/2/1  208/3/1  206/4/1 
f  209/1/1  210/2/1  211/3/1  212/4/1 
f  210/1/1  213/2/1  214/3/1  211/4/1 
f  213/1/1  215/2/1  216/3/1  214/4/1 
f  215/1/1  217/2/1  218/3/1  216/4/1 
f  219/1/1  220/2/1  221/3/1  222/4/1 
f  220/1/1  223/2/1  224/3/1  221/4/1 
f  223/1/1  225/2/1  226/3/1  224/4/1 
f  225/1/1  227/2/1  228/3/1  226/4/1 
f  227/1/1  229/2/1  230/3/1  228/4/1 
f  231/1/1  232/2/1  233/3/1  234/4/1 
f  232/1/1  235/2/1  236/3/1  233/4/1 
f  235/1/1  237/2/1  238/3/1  236/4/1 
f  237/1/1  239/2/1  240/3/1  238/4/1 
f  239/1/1  241/2/1  242/3/1  240/4/1 
